<svg width="87" height="68" viewBox="0 0 87 68" fill="none" xmlns="http://www.w3.org/2000/svg">
<path d="M61 34C65.9706 34 70 29.9706 70 25C70 20.0294 65.9706 16 61 16C56.0294 16 52 20.0294 52 25C52 29.9706 56.0294 34 61 34Z" fill="#9492ef"/>
<path fill-rule="evenodd" clip-rule="evenodd" d="M0.5 10C0.5 4.7533 4.7533 0.5 10 0.5H77C82.2467 0.5 86.5 4.7533 86.5 10V58C86.5 63.2467 82.2467 67.5 77 67.5H10C4.7533 67.5 0.5 63.2467 0.5 58V10ZM10 9.5C9.72388 9.5 9.5 9.72385 9.5 10V35.3325C9.5 37.1412 11.71 38.0209 12.9529 36.7069L21.4323 27.743C23.0694 26.0124 25.8469 26.0874 27.3882 27.9039L35.6913 37.6897C37.2039 39.4725 39.9165 39.5835 41.5698 37.9302L42.6156 36.8844C44.1994 35.3006 46.7749 35.3259 48.3273 36.9404L66.9921 56.3518C68.3118 57.7243 70.1338 58.5 72.0379 58.5H77C77.2761 58.5 77.5 58.2762 77.5 58V10C77.5 9.72385 77.2761 9.5 77 9.5H10Z" fill="#9492ef"/>
</svg>
