<svg width="164" height="166" viewBox="0 0 164 166" fill="none" xmlns="http://www.w3.org/2000/svg">
  <path
    d="M9 46C9 25.5655 25.5655 9 46 9H118C138.435 9 155 25.5655 155 46V120C155 140.435 138.435 157 118 157H46C25.5655 157 9 140.435 9 120V46Z"
    stroke="#58596e" stroke-width="18" />
  <path
    d="M124 52C130.075 52 135 47.0751 135 41C135 34.9249 130.075 30 124 30C117.925 30 113 34.9249 113 41C113 47.0751 117.925 52 124 52Z"
    fill="#58596e" />
  <path d="M124 63H61L41 83V126H61V83H83V126H103V83H124V63Z" fill="#58596e" />
</svg>